<svg xmlns="http://www.w3.org/2000/svg" viewBox="0 0 100 100" width="32" height="32">
  <rect width="100" height="100" rx="16" fill="transparent"/>
  <svg viewBox="45 136 20 24" x="5" y="5" width="90" height="90">
    <path
      style="fill:#070707;stroke:none"
      d="m 45.243749,154.25208 c 4.270413,0 10.847309,1.23776 14.816465,-0.39238 2.569909,-1.05546 3.364769,-4.34105 4.138604,-6.75137 0.32775,-1.02086 0.714951,-2.63389 -0.284386,-3.4159 -1.638288,-1.282 -4.807701,-0.35157 -6.764433,-0.81743 1.839624,-2.8604 4.096399,-1.1776 6.834253,-1.93619 1.5897,-0.44047 3.36334,-2.85041 4.278247,-4.14922 -5.412529,0 -11.414567,-1.38468 -15.300919,2.91041 -0.93796,1.03661 -2.741029,2.42277 -2.385946,3.96875 0.949145,4.13244 3.454065,3.15436 6.837723,3.4551 0.901069,0.0801 1.64624,0.56494 1.187769,1.55769 -1.01848,2.20538 -6.350497,0.80388 -8.330294,1.11183 -1.936158,0.30115 -3.959105,2.94259 -5.027083,4.45871"
    />
  </svg>
</svg>
